<mxfile host="app.diagrams.net" modified="2023-04-24T15:08:22.653Z" agent="Mozilla/5.0 (Macintosh; Intel Mac OS X 10_15_7) AppleWebKit/537.36 (KHTML, like Gecko) Chrome/112.0.0.0 Safari/537.36" etag="aACBWaRyAH1jPah-qjwW" version="21.2.1" type="github">
  <diagram name="페이지-1" id="9oatzeltDpTZMcbJ5VR2">
    <mxGraphModel dx="984" dy="610" grid="1" gridSize="10" guides="1" tooltips="1" connect="1" arrows="0" fold="1" page="1" pageScale="1" pageWidth="827" pageHeight="1169" math="0" shadow="0">
      <root>
        <mxCell id="0" />
        <mxCell id="1" parent="0" />
        <mxCell id="mdl1_sVaAJ38nG77r-Cv-1" value="Actor" style="shape=umlActor;verticalLabelPosition=bottom;verticalAlign=top;html=1;outlineConnect=0;" vertex="1" parent="1">
          <mxGeometry x="90" y="100" width="30" height="80" as="geometry" />
        </mxCell>
        <mxCell id="mdl1_sVaAJ38nG77r-Cv-2" value="게시판&amp;nbsp;" style="shape=umlFrame;whiteSpace=wrap;html=1;pointerEvents=0;" vertex="1" parent="1">
          <mxGeometry x="200" y="50" width="600" height="390" as="geometry" />
        </mxCell>
        <mxCell id="mdl1_sVaAJ38nG77r-Cv-17" style="edgeStyle=orthogonalEdgeStyle;rounded=0;orthogonalLoop=1;jettySize=auto;html=1;exitX=0;exitY=0.5;exitDx=0;exitDy=0;" edge="1" parent="1" source="mdl1_sVaAJ38nG77r-Cv-3" target="mdl1_sVaAJ38nG77r-Cv-1">
          <mxGeometry relative="1" as="geometry" />
        </mxCell>
        <mxCell id="mdl1_sVaAJ38nG77r-Cv-20" style="edgeStyle=orthogonalEdgeStyle;orthogonalLoop=1;jettySize=auto;html=1;exitX=1;exitY=0.75;exitDx=0;exitDy=0;curved=1;" edge="1" parent="1" source="mdl1_sVaAJ38nG77r-Cv-3" target="mdl1_sVaAJ38nG77r-Cv-5">
          <mxGeometry relative="1" as="geometry" />
        </mxCell>
        <mxCell id="mdl1_sVaAJ38nG77r-Cv-3" value="회원 로그인" style="rounded=1;whiteSpace=wrap;html=1;arcSize=40;fontColor=#000000;fillColor=#ffffc0;strokeColor=#ff0000;" vertex="1" parent="1">
          <mxGeometry x="394" y="360" width="120" height="40" as="geometry" />
        </mxCell>
        <mxCell id="mdl1_sVaAJ38nG77r-Cv-5" value="인증" style="whiteSpace=wrap;html=1;fillColor=#ffffc0;strokeColor=#ff0000;fontColor=#000000;rounded=1;arcSize=40;" vertex="1" parent="1">
          <mxGeometry x="600" y="80" width="120" height="30" as="geometry" />
        </mxCell>
        <mxCell id="mdl1_sVaAJ38nG77r-Cv-25" style="edgeStyle=orthogonalEdgeStyle;rounded=0;orthogonalLoop=1;jettySize=auto;html=1;exitX=0.25;exitY=1;exitDx=0;exitDy=0;entryX=1;entryY=0.5;entryDx=0;entryDy=0;" edge="1" parent="1" source="mdl1_sVaAJ38nG77r-Cv-7" target="mdl1_sVaAJ38nG77r-Cv-9">
          <mxGeometry relative="1" as="geometry" />
        </mxCell>
        <mxCell id="mdl1_sVaAJ38nG77r-Cv-7" value="게시판 정렬" style="rounded=1;whiteSpace=wrap;html=1;arcSize=40;fontColor=#000000;fillColor=#ffffc0;strokeColor=#ff0000;" vertex="1" parent="1">
          <mxGeometry x="430" y="190" width="120" height="40" as="geometry" />
        </mxCell>
        <mxCell id="mdl1_sVaAJ38nG77r-Cv-21" style="edgeStyle=orthogonalEdgeStyle;rounded=0;orthogonalLoop=1;jettySize=auto;html=1;exitX=0;exitY=0.5;exitDx=0;exitDy=0;entryX=0;entryY=1;entryDx=0;entryDy=0;entryPerimeter=0;" edge="1" parent="1" source="mdl1_sVaAJ38nG77r-Cv-8" target="mdl1_sVaAJ38nG77r-Cv-1">
          <mxGeometry relative="1" as="geometry" />
        </mxCell>
        <mxCell id="mdl1_sVaAJ38nG77r-Cv-22" style="edgeStyle=orthogonalEdgeStyle;rounded=0;orthogonalLoop=1;jettySize=auto;html=1;exitX=1;exitY=0.5;exitDx=0;exitDy=0;entryX=1;entryY=0.5;entryDx=0;entryDy=0;" edge="1" parent="1" source="mdl1_sVaAJ38nG77r-Cv-8" target="mdl1_sVaAJ38nG77r-Cv-3">
          <mxGeometry relative="1" as="geometry" />
        </mxCell>
        <mxCell id="mdl1_sVaAJ38nG77r-Cv-8" value="게시글 보기" style="rounded=1;whiteSpace=wrap;html=1;arcSize=40;fontColor=#000000;fillColor=#ffffc0;strokeColor=#ff0000;" vertex="1" parent="1">
          <mxGeometry x="210" y="310" width="120" height="40" as="geometry" />
        </mxCell>
        <mxCell id="mdl1_sVaAJ38nG77r-Cv-16" style="edgeStyle=orthogonalEdgeStyle;rounded=0;orthogonalLoop=1;jettySize=auto;html=1;exitX=0;exitY=0.5;exitDx=0;exitDy=0;" edge="1" parent="1" source="mdl1_sVaAJ38nG77r-Cv-9" target="mdl1_sVaAJ38nG77r-Cv-1">
          <mxGeometry relative="1" as="geometry" />
        </mxCell>
        <mxCell id="mdl1_sVaAJ38nG77r-Cv-23" style="edgeStyle=orthogonalEdgeStyle;rounded=0;orthogonalLoop=1;jettySize=auto;html=1;exitX=0.75;exitY=0;exitDx=0;exitDy=0;entryX=0.75;entryY=1;entryDx=0;entryDy=0;" edge="1" parent="1" source="mdl1_sVaAJ38nG77r-Cv-9" target="mdl1_sVaAJ38nG77r-Cv-3">
          <mxGeometry relative="1" as="geometry" />
        </mxCell>
        <mxCell id="mdl1_sVaAJ38nG77r-Cv-9" value="게시판 보기" style="rounded=1;whiteSpace=wrap;html=1;arcSize=50;fontColor=#000000;fillColor=#ffffc0;strokeColor=#ff0000;" vertex="1" parent="1">
          <mxGeometry x="210" y="240" width="120" height="40" as="geometry" />
        </mxCell>
        <mxCell id="mdl1_sVaAJ38nG77r-Cv-15" style="edgeStyle=orthogonalEdgeStyle;rounded=0;orthogonalLoop=1;jettySize=auto;html=1;entryX=0.5;entryY=0.5;entryDx=0;entryDy=0;entryPerimeter=0;" edge="1" parent="1" source="mdl1_sVaAJ38nG77r-Cv-10" target="mdl1_sVaAJ38nG77r-Cv-1">
          <mxGeometry relative="1" as="geometry" />
        </mxCell>
        <mxCell id="mdl1_sVaAJ38nG77r-Cv-10" value="회원 가입" style="rounded=1;whiteSpace=wrap;html=1;arcSize=40;fontColor=#000000;fillColor=#ffffc0;strokeColor=#ff0000;" vertex="1" parent="1">
          <mxGeometry x="200" y="120" width="120" height="40" as="geometry" />
        </mxCell>
        <mxCell id="mdl1_sVaAJ38nG77r-Cv-26" style="edgeStyle=orthogonalEdgeStyle;rounded=0;orthogonalLoop=1;jettySize=auto;html=1;exitX=0;exitY=0.5;exitDx=0;exitDy=0;entryX=1;entryY=0.25;entryDx=0;entryDy=0;" edge="1" parent="1" source="mdl1_sVaAJ38nG77r-Cv-11" target="mdl1_sVaAJ38nG77r-Cv-8">
          <mxGeometry relative="1" as="geometry">
            <Array as="points">
              <mxPoint x="490" y="250" />
              <mxPoint x="490" y="320" />
            </Array>
          </mxGeometry>
        </mxCell>
        <mxCell id="mdl1_sVaAJ38nG77r-Cv-11" value="게시글 쓰기, 수정, 삭제" style="rounded=1;whiteSpace=wrap;html=1;arcSize=40;fontColor=#000000;fillColor=#ffffc0;strokeColor=#ff0000;" vertex="1" parent="1">
          <mxGeometry x="610" y="230" width="120" height="40" as="geometry" />
        </mxCell>
        <mxCell id="mdl1_sVaAJ38nG77r-Cv-24" style="edgeStyle=orthogonalEdgeStyle;rounded=0;orthogonalLoop=1;jettySize=auto;html=1;exitX=0;exitY=0.5;exitDx=0;exitDy=0;entryX=0.25;entryY=0;entryDx=0;entryDy=0;" edge="1" parent="1" source="mdl1_sVaAJ38nG77r-Cv-12" target="mdl1_sVaAJ38nG77r-Cv-9">
          <mxGeometry relative="1" as="geometry" />
        </mxCell>
        <mxCell id="mdl1_sVaAJ38nG77r-Cv-12" value="게시판 검색" style="rounded=1;whiteSpace=wrap;html=1;arcSize=40;fontColor=#000000;fillColor=#ffffc0;strokeColor=#ff0000;" vertex="1" parent="1">
          <mxGeometry x="440" y="140" width="120" height="40" as="geometry" />
        </mxCell>
        <mxCell id="mdl1_sVaAJ38nG77r-Cv-19" style="edgeStyle=orthogonalEdgeStyle;rounded=0;orthogonalLoop=1;jettySize=auto;html=1;exitX=0;exitY=0.75;exitDx=0;exitDy=0;entryX=1;entryY=0.25;entryDx=0;entryDy=0;" edge="1" parent="1" source="mdl1_sVaAJ38nG77r-Cv-13" target="mdl1_sVaAJ38nG77r-Cv-3">
          <mxGeometry relative="1" as="geometry" />
        </mxCell>
        <mxCell id="mdl1_sVaAJ38nG77r-Cv-13" value="로그인 실패" style="rounded=1;whiteSpace=wrap;html=1;arcSize=40;fontColor=#000000;fillColor=#ffffc0;strokeColor=#ff0000;" vertex="1" parent="1">
          <mxGeometry x="410" y="70" width="104" height="50" as="geometry" />
        </mxCell>
        <mxCell id="mdl1_sVaAJ38nG77r-Cv-27" style="edgeStyle=orthogonalEdgeStyle;rounded=0;orthogonalLoop=1;jettySize=auto;html=1;exitX=0;exitY=0.5;exitDx=0;exitDy=0;entryX=0.942;entryY=0.938;entryDx=0;entryDy=0;entryPerimeter=0;" edge="1" parent="1" source="mdl1_sVaAJ38nG77r-Cv-14" target="mdl1_sVaAJ38nG77r-Cv-8">
          <mxGeometry relative="1" as="geometry" />
        </mxCell>
        <mxCell id="mdl1_sVaAJ38nG77r-Cv-14" value="댓글 보기, 쓰기, 수정, 삭제" style="rounded=1;whiteSpace=wrap;html=1;arcSize=40;fontColor=#000000;fillColor=#ffffc0;strokeColor=#ff0000;" vertex="1" parent="1">
          <mxGeometry x="640" y="300" width="120" height="40" as="geometry" />
        </mxCell>
        <mxCell id="mdl1_sVaAJ38nG77r-Cv-28" value="DB" style="html=1;dropTarget=0;whiteSpace=wrap;" vertex="1" parent="1">
          <mxGeometry x="310" y="495" width="120" height="75" as="geometry" />
        </mxCell>
      </root>
    </mxGraphModel>
  </diagram>
</mxfile>
